# xmcd
#
# Track frame offsets: 
#        150
#        16521
#        25069
#        31951
#        39300
#        47898
#        66041
#        87161
#        98761
#        107527
#        116437
#        133792
#        146786
#        153971
#        164388
#        179429
#        190353
#
# Disc length: 2773 seconds
#
# Revision: 2
# Processed by: cddbd v1.4PL0 Copyright (c) Steve Scherf et al.
# Submitted via: ExactAudioCopy v0.90a11
#
DISCID=d60ad311
DTITLE=Manu Chao - Proxima estacion esperanza
DYEAR=1900
DGENRE=
TTITLE0=Merry Blues
TTITLE1=Bixo
TTITLE2=El Dorado 1997
TTITLE3=Promiscuity
TTITLE4=La Primavera
TTITLE5=Me Gustas Tu
TTITLE6=Denia
TTITLE7=Mi Vida
TTITLE8=Trapped by Love
TTITLE9=Le Rendez Vous
TTITLE10=Mr Bobby
TTITLE11=Papito
TTITLE12=La Chinita
TTITLE13=La Marea
TTITLE14=Homens
TTITLE15=La Vacaloca
TTITLE16=Infinita Tristeza
EXTD=
EXTT0=
EXTT1=
EXTT2=
EXTT3=
EXTT4=
EXTT5=
EXTT6=
EXTT7=
EXTT8=
EXTT9=
EXTT10=
EXTT11=
EXTT12=
EXTT13=
EXTT14=
EXTT15=
EXTT16=
PLAYORDER=
